<?xml version="1.0" standalone="no"?><!DOCTYPE svg PUBLIC "-//W3C//DTD SVG 1.1//EN" "http://www.w3.org/Graphics/SVG/1.1/DTD/svg11.dtd"><svg t="1534316460612" class="icon" style="" viewBox="0 0 1024 1024" version="1.1" xmlns="http://www.w3.org/2000/svg" p-id="3851" xmlns:xlink="http://www.w3.org/1999/xlink" width="32" height="32"><defs><style type="text/css"></style></defs><path d="M550.418397 614.803815c8.349974-9.466548 8.349974-25.62159-1.110492-35.652505L417.856319 439.341235l-36.40297-36.404186c-3.016451-3.016451-7.865883-2.905767-10.867738 0.126496a3.438511 3.438511 0 0 0-0.065681 0.066897L98.147777 732.878414V213.182815c2.228282-15.037252 13.92676-24.514747 27.846222-24.514747h371.524603l60.159955-69.066999H89.237083c-33.430306 0-60.161171 26.729649-60.16117 61.271663v663.959804c0 33.700327 27.572552 61.272879 61.272878 61.272879h207.765366l252.326133-291.319844-0.021893 0.018244z m90.236891-272.934089c0 57.374602 46.229545 103.601715 103.601715 103.601716 57.37217 0 103.601715-46.229545 103.601715-103.601716s-46.229545-103.601715-103.601715-103.601715c-57.37217 0-103.601715 46.229545-103.601715 103.601715z" fill="#D5D6D6" p-id="3852"></path><path d="M934.754403 119.070757H733.121676c-2.014211 2.605338-58.491176 69.071864-58.491176 69.071865h222.802618c15.037252 0 26.729649 8.989754 27.846223 24.03552l1.110491 520.16023-215.55827-230.608901c-6.683629-7.798986-16.147744-12.800456-27.846222-12.800457-10.57704 0-18.373593 5.56219-27.846222 11.693614l-9.466548 7.798985 63.501161 67.956508c9.466548 9.466548 9.466548 24.51353 1.110491 35.652505L456.286878 903.900243h478.47239c33.429089 0 60.159954-26.729649 60.159954-61.271662V179.784133c0-33.977646-26.729649-60.719457-60.159954-60.719457l-0.004865 0.006081z" fill="#D5D6D6" p-id="3853"></path></svg>